<svg id="exportSystemMap" xmlns="http://www.w3.org/2000/svg" xmlns:xlink="http://www.w3.org/1999/xlink" viewBox="-600 -600 1200 1200" width="2048" height="2048"><rect class="bg-rect" x="-600" y="-600" width="1200" height="1200" fill="rgb(0, 0, 0)"></rect><defs><filter id="glow" filterUnits="objectBoundingBox" x="-50%" y="-50%" width="200%" height="200%"><feGaussianBlur in="SourceGraphic" stdDeviation="2"></feGaussianBlur></filter><filter id="starGlow" filterUnits="objectBoundingBox" x="-500%" y="-500%" width="1100%" height="1100%"><feGaussianBlur in="SourceGraphic" stdDeviation="10"></feGaussianBlur></filter></defs><g> <circle cx="0" cy="0" r="79.52" fill="none" stroke-width="0.5" stroke-linecap="round" stroke-linejoin="round" stroke="rgb(62, 62, 62)" stroke-opacity="1"></circle>  <circle cx="0" cy="0" r="123.13" fill="none" stroke-width="0.5" stroke-linecap="round" stroke-linejoin="round" stroke="rgb(62, 62, 62)" stroke-opacity="1"></circle> <circle fill="#FFFFFF" r="8" cx="0" cy="0" filter="url(#starGlow)"></circle>  <circle fill="rgb(0, 0, 0)" r="8" cx="0" cy="0" filter=""></circle> <circle fill="rgb(156, 91, 45)" r="3.7416573867739413" cx="57.7506" cy="-54.67159"></circle><path d="
			M 0 3.7416573867739413
			A 3.7416573867739413 3.7416573867739413 0 0 0 0 -3.7416573867739413
			A 1.8708286933869707 3.7416573867739413 0 0 1 0 3.7416573867739413
			Z
		" transform=" translate(57.7506 -54.67159) rotate(-43.431179924743574)" fill="#000000" opacity="0.5"></path><circle fill="rgb(191, 187, 224)" r="4.242640687119285" cx="-119.68112" cy="29.64477"></circle><path d="
			M 0 4.242640687119285
			A 4.242640687119285 4.242640687119285 0 0 0 0 -4.242640687119285
			A 2.1213203435596424 4.242640687119285 0 0 1 0 4.242640687119285
			Z
		" transform=" translate(-119.68112 29.64477) rotate(166.08796180598827)" fill="#000000" opacity="0.5"></path><defs><path id="planetLabelPath7701" d="M 13 0 h 1000" pathLength="1"></path></defs><text font-family="Orbitron" font-size="10" fill="#FFFFFF"><textPath href="#planetLabelPath7701" startOffset="0" dominant-baseline="middle" text-anchor="start">Чёрная дыра Валендана</textPath></text><defs><path id="planetLabelPath7702" d="M 66.49225738677394 -54.67159 h 1000" pathLength="1"></path></defs><text font-family="Orbitron" font-size="10" fill="#FFFFFF"><textPath href="#planetLabelPath7702" startOffset="0" dominant-baseline="middle" text-anchor="start">Чёрная дыра Валендана I</textPath></text><defs><path id="planetLabelPath7703" d="M -110.43847931288073 29.64477 h 1000" pathLength="1"></path></defs><text font-family="Orbitron" font-size="10" fill="#FFFFFF"><textPath href="#planetLabelPath7703" startOffset="0" dominant-baseline="middle" text-anchor="start">Чёрная дыра Валендана II</textPath></text><g fill="rgb(51, 127, 91)"><path d="
				M 233.02712147787065 326.49404382888474
				L 279.12039825371323 288.08297984901594
				L 268.87744785908154 322.65293743089785
				Z
			"></path><defs><path id="connectionLabelPath681" pathLength="1" d="M -131.23780193121846 623.5396052732033 L 636.9834776661576 -16.644794391276378"></path></defs><text font-family="Orbitron" font-size="10"><textPath href="#connectionLabelPath681" startOffset="0.5" text-anchor="middle" dominant-baseline="auto">?-UX17</textPath></text></g></g><g transform="translate(-600 -600) scale(1.2)"></g></svg>